<?xml version="1.0" encoding="UTF-8"?>
<svg id="Calque_1" xmlns="http://www.w3.org/2000/svg" xmlns:xlink="http://www.w3.org/1999/xlink" viewBox="0 0 450 600"><defs><style>.cls-1{clip-path:url(#clippath-3);}.cls-1,.cls-2,.cls-3,.cls-4,.cls-5{fill:none;}.cls-1,.cls-2,.cls-3,.cls-5{clip-rule:evenodd;}.cls-6,.cls-7,.cls-8{fill:#fff;}.cls-6,.cls-9{opacity:.2;}.cls-10{fill:#f4a6a7;}.cls-11{fill:#37474f;}.cls-12{fill:#455a64;}.cls-2{clip-path:url(#clippath);}.cls-13{clip-path:url(#clippath-2);}.cls-14{fill:#9e6767;}.cls-15{fill:#f28f8f;}.cls-16{opacity:.3;}.cls-17{fill:#874c4c;}.cls-7{opacity:.4;}.cls-18{clip-path:url(#clippath-1);}.cls-19{fill:#263239;}.cls-20,.cls-21{fill:#eb6612;}.cls-22{fill:#fbfbfb;}.cls-8,.cls-21{opacity:.6;}.cls-23{opacity:.15;}.cls-5{clip-path:url(#clippath-6);}.cls-24{fill:#b26668;}</style><clipPath id="clippath"><polygon class="cls-3" points="-18.36 543.36 468.36 543.36 468.36 56.64 -18.36 56.64 -18.36 543.36 -18.36 543.36"/></clipPath><clipPath id="clippath-1"><polygon class="cls-2" points="-18.36 56.64 468.36 56.64 468.36 543.36 -18.36 543.36 -18.36 56.64 -18.36 56.64"/></clipPath><clipPath id="clippath-2"><polygon class="cls-4" points="-18.36 543.36 468.36 543.36 468.36 56.64 -18.36 56.64 -18.36 543.36 -18.36 543.36"/></clipPath><clipPath id="clippath-3"><polygon class="cls-3" points="443.74 467.53 946.26 467.53 946.26 132.47 443.74 132.47 443.74 467.53 443.74 467.53"/></clipPath><clipPath id="clippath-4"><polygon class="cls-1" points="443.74 132.47 946.26 132.47 946.26 467.53 443.74 467.53 443.74 132.47 443.74 132.47"/></clipPath><clipPath id="clippath-6"><polygon class="cls-3" points="-95.05 1240.05 545.05 1240.05 545.05 599.95 -95.05 599.95 -95.05 1240.05 -95.05 1240.05"/></clipPath><clipPath id="clippath-7"><polygon class="cls-5" points="-95.05 599.95 545.05 599.95 545.05 1240.05 -95.05 1240.05 -95.05 599.95 -95.05 599.95"/></clipPath></defs><g class="cls-18"><g class="cls-13"><polygon class="cls-19" points="378.55 450.41 375.26 448.72 378.55 447.84 378.55 450.41 378.55 450.41 378.55 450.41"/><path class="cls-19" d="M345.52,456.1s39.45-17.25,39.9-14.57c.11,.53,.11,1.07,0,1.59,0-.05,.08-.09,.11-.14l-.8,4.94c-1.76,1.41-3.89,2.27-6.14,2.49v-2.56c-1.22,.48-2.39,1.08-3.49,1.8-2.54,1.64-4.2,4.55-6.92,7.91-1.94,2.45-5.46,3.56-10.6,4.22-5.54,.71-10.39-.43-11.74-1.94-1.12-1.21-.53-3.39-.33-3.73h0Z"/><path class="cls-14" d="M346.61,455.2c.39-.4,1.81-1.94,3.72-3.58,1.83-1.69,3.74-3.28,5.73-4.77,1.01-.69,1.96-1.45,2.85-2.29,.69-.73,1.36-1.49,1.94-2.28,1.9-2.49,3.53-5.17,4.86-8,.73-1.33,1.31-2.75,1.71-4.22,.31-1.55,.49-3.12,.53-4.7,.15-7.12,0-8.26,.06-13.67l16.51,.78c-.58,3-1.47,7.09-1.81,10.5-.51,5.18-.66,6.33,1.28,11.53,.56,1.53,1.43,3.01,1.49,4.64,.09,2.66-2.02,4.92-4.36,6.19-1.94,1.05-4.15,1.48-6.03,2.6-1.92,1.27-3.59,2.88-4.94,4.75-1.35,1.68-2.44,3.67-4.3,4.86-1.98,1.13-4.16,1.86-6.42,2.14-2.84,.46-5.72,.56-8.59,.31-3.99-.4-7-1.93-4.23-4.78h0Z"/><path class="cls-11" d="M362.03,447.29c-1.83-1.08-4.05-1.32-6.07-.64-2.91,2.26-5.35,4.27-7.06,5.68-2.07,1.7-3.89,3.26-3.89,5.25,.08,3.13,12.1,4.23,18.87,1.37,2.1-.68,3.84-2.16,4.86-4.12,0,0-.93-4.38-6.71-7.54h0Zm23.05-10.87c-.97-2.02-1.38-3.05-1.38-3.05-2.36,1.24-6.51,7.07-4.73,13.01,2.45-.43,4.61-1.86,5.96-3.94,1.19-1.81,1.25-4.14,.15-6.01h0Z"/><path class="cls-19" d="M414.11,441.85c-1.15,1.76,.16,8.52-.2,13.3-.32,4.34-1.64,11.91-.39,16.23,1.48,5.13,4.56,11.1,10.68,6.46,3.77-2.91,5.97-6.66,6.61-12.91,.45-4.35-1.17-10.4-2.54-15.77-1.61-6.26-2.2-9.62-2.2-9.62l-11.96,2.31Z"/><path class="cls-14" d="M427.07,410.02c.22,10.16-1.11,17.26-1.31,23.76-.04,2.95,.21,5.89,.74,8.79,.77,4.17,2.09,9.96,2.64,12.63,.77,3.77,1.36,6.15,0,10.33-.11,.34-.26,.66-.45,.97-1.88,3.43-6.55,5.95-8.01,5.51-.63,.77-1.65,1.11-2.61,.85-.34-.07-.66-.19-.97-.34-1.21-.7-2.08-1.88-2.39-3.24-.09-.29-.16-.59-.22-.92-.97-5.25-.11-8.61,0-10.68,.17-2.35,.09-5.36,0-9.17-.09-3.81-.79-15.78-1.99-21.52-.89-4.01-2.01-9.04-3.2-14.4l17.77-2.55Z"/><path class="cls-11" d="M429.93,460.13c-3.6-1.68-14.13-2.12-15.92,2.97-.15,4.86-.24,8.1,2.72,12.36,3.93,5.66,9.34-.15,11.45-3.89,2.11-3.74,2.19-8.84,1.75-11.45h0Z"/><path class="cls-12" d="M416.12,277.21c4.93,9.31,8.92,17.15,9.71,41.48,.97,27.46,.49,37.88,.54,41.21,.06,3.33,2.07,9.42,3.54,25.76,1.47,16.34-1.26,55.81-1.26,55.81,0,0-1.34,2.63-7.59,3.11-5.76,.44-9.09-1.65-9.09-1.65,0,0-8.05-52.07-10.1-61.93-2.05-9.86-7.95-42.25-7.95-42.25l-4.12,26.16s1.63,9.02-.32,23.31c-1.95,14.29-5.83,43.09-5.83,43.09-2.81,1.09-5.75,1.78-8.74,2.07-3.27,.32-6.57-.13-9.64-1.32,0,0-3.61-58.38-3.39-74.6s2.32-56.64,7.77-80.57l46.46,.33Z"/><path class="cls-11" d="M372.47,300.2c2.36,6.73,11.19,11.54,15.08,12.53l4.24,25.64-1.94,26.54,4.12-26.16-4.71-31.25s-10.85-.92-16.79-7.3h0Zm37.13-2.76c.61,2.64,1.15,5.29,1.73,7.95s1.15,5.31,1.77,7.99c.07-2.75-.08-5.49-.44-8.22-.32-2.72-.78-5.42-1.37-8.1-.59-2.68-1.34-5.32-2.23-7.92-.87-2.61-2.02-5.13-3.42-7.5,.78,2.63,1.48,5.25,2.13,7.88,.65,2.62,1.23,5.26,1.84,7.92h0Zm4.68-5c.86,1.59,1.68,3.21,2.5,4.86l2.43,4.94c-.16-1.87-.55-3.7-1.18-5.47-.61-1.76-1.35-3.47-2.22-5.12-.86-1.64-1.83-3.22-2.91-4.73-1.08-1.52-2.3-2.93-3.65-4.22,.79,1.7,1.66,3.32,2.52,4.93,.85,1.61,1.69,3.19,2.53,4.8h0Zm-5.09,73.98c-1.45-8.42-2.45-16.93-3.43-25.44-.98-8.51-1.94-17.05-2.96-25.56,.4,8.58,.89,17.14,1.62,25.69s1.64,17.1,3.07,25.6,3.08,16.88,4.73,25.25,3.36,16.82,5.21,25.25c-1.18-8.5-2.48-16.98-3.89-25.45-1.37-8.46-2.86-16.94-4.35-25.35h0Zm-38.63-29.07l1.7-22.34c-1.25,7.37-2.24,14.78-3.04,22.22-.8,7.44-1.52,14.86-1.64,22.43,.16,7.53,.62,14.96,1.14,22.43,.51,7.47,1.15,14.9,1.94,22.34-.11-7.48-.3-14.95-.58-22.42l-.41-11.19c-.14-3.73-.31-7.47-.34-11.17-.03-3.7,.26-7.41,.49-11.13,.22-3.72,.49-7.45,.75-11.17h0Z"/><path class="cls-22" d="M421.63,290.07c4.97-2.34-.47-5.62-1.55-20.84-.27-3.89,1.04-13.65,1.04-13.65,0,0-8.48-10.33-6.19-29.26l-17.11-1.94-11.04,.09-7.03,2.16c-2.38,2.14-6.75,5.52-10.21,10.64-5,7.38-5.75,15.4-.36,21.28,.08,1.16-.68,18.96-2.13,23.31-1.35,4.04-1.64,4.5,.53,6.29,6.85,4.95,45.23,5.3,54.05,1.92h0Z"/><path class="cls-14" d="M377.2,226.82c-6.8,.58-8.51,3.77-17.16,15.96-8.01,11.26-12.26,17.58-12.26,17.58,0,0-20.17-7.77-22.02-9.09-1.85-1.32-2.78-5.37-5-7.77s-4.25-4.08-5.92-5.74c-1.67-1.66-3.7,.92-1.66,3.89,2.04,2.96,2.96,4.63,2.4,4.86s-7.4-3.33-9.07-7.04c-1.67-3.71-2.54-2.59-3.58-2.59,0,0-1.06-2.32-2.91-1.4-.52,.26-.71,.62-.36,3.07-1.16,.3-1.95,1.39-1.86,2.59,.1,1.65,.47,3.28,1.12,4.81,0,0-.97,1.67,1.29,5.19,2.26,3.52,7.42,6.62,13.71,8.85s8.09,3.81,15.68,8.26c5.61,3.42,11.41,6.53,17.36,9.31,6.41,2.76,8.8,.38,12.63-3.69,4.75-5.04,15.66-18.19,15.66-18.19l1.97-28.84Z"/><path class="cls-22" d="M341.52,257.82l-5.15-2.12s1.42,2.51-.43,7.32-5.1,6-5.1,6l5.76,3.3s2.55-1.19,4.68-5.25c2.13-4.06,.23-9.27,.23-9.27h0Z"/><path class="cls-20" d="M377.04,225.78c-8.24,1.18-9.59,4.62-13.51,10.28-4.3,6.21-15.73,23.82-15.73,23.82l-7.6-2.82s2.74,2.52,.47,8.24-5.83,6.34-5.83,6.34c0,0,6.42,3.68,10.98,5.83s7.6,2.67,11.52-.86c3.92-3.54,18.26-20.61,18.26-20.61l1.45-30.21Z"/><path class="cls-23" d="M377.04,225.78c-8.24,1.18-9.59,4.62-13.51,10.28-4.3,6.21-15.73,23.82-15.73,23.82l-7.6-2.82s2.74,2.52,.47,8.24-5.83,6.34-5.83,6.34c0,0,6.42,3.68,10.98,5.83s7.6,2.67,11.52-.86c3.92-3.54,18.26-20.61,18.26-20.61l1.45-30.21Z"/><path class="cls-20" d="M386.76,224.5l-7.02,1.2c-6.66,5.25-14.57,14.66-14.83,21.78-.23,4.01,.19,8.02,1.24,11.9,0,0,.77,14.73-.73,22.4s-4.99,26.23-4.99,26.23c2.67,2.56,5.94,4.41,9.5,5.39,1.53-9.82,5.06-46.9,4.64-55.52-.42-8.62-.87-22.23,12.19-33.37h0Z"/><path class="cls-16" d="M386.76,224.5l-7.02,1.2c-6.66,5.25-14.57,14.66-14.83,21.78-.23,4.01,.19,8.02,1.24,11.9,0,0,.77,14.73-.73,22.4s-4.99,26.23-4.99,26.23c2.67,2.56,5.94,4.41,9.5,5.39,1.53-9.82,5.06-46.9,4.64-55.52-.42-8.62-.87-22.23,12.19-33.37h0Z"/><path class="cls-9" d="M373.59,261.9c-.6-2.27-1.26-4.54-1.94-6.8-.68-2.26-1.32-4.52-1.94-6.8-.31-1.12-.55-2.26-.72-3.41-.19-1.07,.55-1.99,1.3-2.86,1.6-1.68,3.38-3.18,5.31-4.48l.17-.13v-.21c-.23-1.23-.25-2.49-.07-3.73,.18-1.25,.59-2.46,1.22-3.56,.7-1.06,1.58-1.99,2.59-2.76,1.01-.79,2.12-1.47,3.28-2.02-1.21,.46-2.37,1.07-3.43,1.82-1.1,.73-2.05,1.66-2.81,2.74-.71,1.12-1.19,2.37-1.42,3.68-.24,1.31-.24,2.66,0,3.97l.13-.33c-2,1.29-3.84,2.82-5.49,4.55-.42,.45-.78,.95-1.08,1.5-.08,.14-.15,.28-.19,.44-.07,.15-.12,.31-.15,.48-.05,.32-.05,.65,0,.97,.18,1.18,.44,2.34,.78,3.49,.62,2.28,1.39,4.51,2.14,6.74,.75,2.23,1.52,4.46,2.3,6.71h0Z"/><path class="cls-20" d="M405.46,225.27s-2.91,3.89-6.61,12.93-7.34,17.28-7.1,25.59c.24,8.31,3.89,56.04,3.89,56.04,7.47-.06,14.94-.6,22.34-1.63l-.48-14.03,4.38,11.56s2.38-.72,8.22-3.19c-3.36-13.7-7.95-29.65-8.4-37.88-.45-8.23-1.24-47.38-1.24-47.38l-14.99-2.02Z"/><path class="cls-16" d="M405.46,225.27s-2.91,3.89-6.61,12.93-7.34,17.28-7.1,25.59c.24,8.31,3.89,56.04,3.89,56.04,7.47-.06,14.94-.6,22.34-1.63l-.48-14.03,4.38,11.56s2.38-.72,8.22-3.19c-3.36-13.7-7.95-29.65-8.4-37.88-.45-8.23-1.24-47.38-1.24-47.38l-14.99-2.02Z"/><path class="cls-9" d="M393.37,266.23c.71-2.11,1.77-4.08,3.15-5.83,1.3-1.8,2.73-3.5,4.2-5.16,.72-.84,1.47-1.67,2.2-2.5l1.13-1.24c.18-.22,.37-.41,.56-.66,.05-.06,.1-.13,.15-.19,.05-.11,.1-.21,.14-.32,.03-.19,.05-.37,.05-.56-.22-1.16-.64-2.27-1.23-3.28-.55-.97-1.14-1.94-1.78-2.91v.55l3.33-3.52,1.65-1.77,.42-.45,.2-.22c.1-.11,.2-.23,.28-.36,.08-.24,.1-.5,.07-.76,0-.21-.05-.43-.08-.63-.32-1.61-.74-3.19-1.26-4.74-.51-1.54-1.03-3.08-1.62-4.59,.42,1.57,.85,3.14,1.24,4.7,.4,1.56,.73,3.13,.97,4.72,.06,.34,.06,.68,0,1.02,.06-.09,0,.05-.12,.11l-.21,.21-.43,.43-1.72,1.74-3.42,3.5-.24,.25,.2,.3c.59,.91,1.17,1.86,1.68,2.84,.54,.9,.94,1.89,1.17,2.91,0,.09,0,.18,0,.27,0,.02,0,.05,0,.07,0,0-.07,.09-.1,.14-.15,.19-.35,.41-.52,.62l-1.1,1.25c-.73,.84-1.47,1.68-2.18,2.54-1.43,1.73-2.76,3.53-4,5.39-.62,.94-1.17,1.91-1.67,2.91-.52,1.02-.89,2.1-1.11,3.22h0Z"/><path class="cls-14" d="M368.21,284.13c-2.06,.27-4.23-.68-6.25-.87-1.77-.08-3.55-.01-5.31,.21-1.84,.16-3.68,.36-5.53,.5-.46,0-.56,.5-.51,.9,.13,.78,.6,1.45,1.28,1.85,.68,.38,1.42,.62,2.2,.71,.68,.11,1.38,.18,2.07,.19,.73,0,2.45,.06,2.26,1.15l9.79-4.64Z"/><path class="cls-17" d="M368.21,284.13c-1.44,.19-2.9,.09-4.29-.29-.69-.15-1.39-.25-2.1-.31-.7-.04-1.41-.04-2.11,0-1.41,.08-2.85,.22-4.28,.29-1.44,.07-2.91,.16-4.3,.16,1.42-.25,2.85-.45,4.26-.62s2.85-.34,4.29-.43c.73-.04,1.46-.04,2.19,0,.73,.09,1.44,.23,2.15,.43,.7,.18,1.38,.38,2.08,.52,.69,.17,1.4,.25,2.12,.24h0Z"/><path class="cls-14" d="M344.58,296.49c.75,.79,4.92,.92,6.99,.69,1.64-.22,3.26-.54,4.86-.97,0,0-2.64,2.62-5.2,3.22-2.55,.6-5.25,0-6.45,1.5-.71,.86,.61,1.39,1.26,1.59,.6,.13,1.2,.22,1.81,.28-.13,.4-.06,.84,.2,1.18,.28,.24,.61,.42,.97,.52,1.79,.34,3.64,.26,5.39-.24-1.12,.56-1.86,.65-2.37,1.24-.29,.33-.32,.8-.09,1.17,.25,.44,1.15,.31,1.64,.24,2.68-.22,5.28-.99,7.64-2.26,1.13-.46,2.2-1.03,3.21-1.7,.75-.59,2.71-2.4,3.79-3.34,2.76-2.43,4.46-2.84,5.89-3.04,10.89-1.57,21.75-4.91,34.65-7.05,6.88-1.14,7.19-2.91,9.4-8.91,2.21-5.99,3.03-11.82,6.32-22.1,4.41-13.73,8.96-23.43-2.41-27.54-4.92,.1-9.82,9.19-11.66,17.56l-8.3,24.28s-15.23,7.17-21.6,9.15c-7.38,2.28-8.48,2.28-12.43,2.24l-9.75,4.58c-.14,.81-1.41,1.66-1.94,2.16-3.17,2.8-7.95,2.54-10.19,3.21-2.23,.68-2.39,1.55-1.65,2.33h0Z"/><path class="cls-22" d="M390.59,277.56l-6.04,2.72c1.47,2.07,2.41,4.46,2.75,6.97,.32,2.4,.32,4.82,0,7.22l8.1-2.02c.09-3.02-.4-6.04-1.45-8.88-1.72-4.43-3.36-6.01-3.36-6.01h0Z"/><path class="cls-17" d="M347.9,302.76c2.16-.09,4.31-.38,6.42-.88,1.03-.32,2-.78,2.91-1.35l2.84-1.62c-.84,.7-1.73,1.35-2.65,1.94-.91,.63-1.91,1.12-2.97,1.45-2.14,.5-4.35,.66-6.55,.47h0Z"/><path class="cls-17" d="M354.5,304.22c1.07-.37,2.12-.83,3.12-1.37,.97-.5,1.94-1.12,3-1.63-.85,.79-1.79,1.46-2.81,2.01-1.02,.55-2.15,.89-3.31,.99h0Z"/><path class="cls-20" d="M420.38,227.31c5.1,1.2,9.54,4.36,9.99,10.15,.22,2.76-.59,8.74-5.35,23.61s-5.99,20.59-7.61,23.98-2.01,3.67-8.54,5.08-17.48,3.58-17.48,3.58c.49-2.84,.34-5.76-.46-8.54-1.3-5.01-2.54-6.74-2.54-6.74l13.24-6.26s6.86-21.18,8.57-26.81c1.71-5.62,5.96-17.24,10.18-18.07h0Z"/><path class="cls-23" d="M420.38,227.31c5.1,1.2,9.54,4.36,9.99,10.15,.22,2.76-.59,8.74-5.35,23.61s-5.99,20.59-7.61,23.98-2.01,3.67-8.54,5.08-17.48,3.58-17.48,3.58c.49-2.84,.34-5.76-.46-8.54-1.3-5.01-2.54-6.74-2.54-6.74l13.24-6.26s6.86-21.18,8.57-26.81c1.71-5.62,5.96-17.24,10.18-18.07h0Z"/><path class="cls-14" d="M404.87,213.17c1.93,.2,3.84-.6,5.04-2.13,2.6-3.05,2.75-6.07,1.43-8.04-1.09-1.61-3.66-2.58-5.41-1.41-1.75,1.18-1.89,2.23-2.57,3.6-.68,1.37-1.88,.1-1.44-5.35-1.94-6.3-4.58-8.41-7.14-10.63-3.83-3.3-7.12-2.76-9.38-2.68-1.94-.66-3.89-1.06-6.39,.39-2.51,1.45-4.29,5.28-4.86,14.95-.56,9.86,1.71,16.74,4.01,18.33,2.24,1.55,4.96,2.24,7.66,1.94l-.24,5.23s-7.65,11.73,4.86,9.21c4.97-1.08,9.23-4.27,11.66-8.74l.65-16.13s.21,1.17,2.13,1.47h0Z"/><path class="cls-19" d="M389.21,202.24c.32,.84,1.26,1.25,2.1,.92,.83-.32,1.25-1.26,.92-2.1-.32-.82-1.23-1.23-2.05-.94-.85,.32-1.28,1.26-.97,2.12h0Z"/><path class="cls-19" d="M376.42,198.05l3.39-1.87c-.44-.92-1.55-1.31-2.48-.87-.03,.02-.07,.03-.1,.05-.95,.54-1.3,1.72-.82,2.69h0Z"/><path class="cls-19" d="M380.59,202.01c-.31,.84-1.25,1.27-2.09,.96-.84-.31-1.27-1.25-.96-2.09,.3-.81,1.19-1.25,2.02-.98,.86,.3,1.32,1.24,1.02,2.1,0,0,0,0,0,0h0Z"/><path class="cls-19" d="M390.35,196.38l3.58,2.08c.61-.88,.38-2.09-.5-2.7-.06-.04-.11-.07-.17-.11-1.01-.57-2.29-.25-2.91,.73h0Z"/><path class="cls-17" d="M390.69,210.33l-5.35,1.72c.48,1.49,2.07,2.3,3.56,1.82,.07-.02,.15-.05,.22-.08,1.38-.49,2.09-2,1.6-3.37,0-.03-.02-.06-.03-.08h0Z"/><path class="cls-10" d="M387.63,213.91c.16-1.51,1.45-2.64,2.97-2.6h.27c.03,1.1-.67,2.09-1.71,2.43-.49,.18-1.02,.24-1.53,.17h0Z"/><polygon class="cls-17" points="385.82 198.86 385.03 208.54 379.73 206.7 385.82 198.86 385.82 198.86 385.82 198.86"/><path class="cls-19" d="M401.92,199.84c-2.24-6.25-7.77-12.4-16.3-12.86-3.17-.34-6.3,.87-8.43,3.23-1.22,1.44-2.02,3.19-2.29,5.05-.6,3.67-.87,7.38-.81,11.09-1.38-4.51-1.47-9.31-.24-13.86,1.87-7.29,6.8-8.79,13.21-9.12,6.41-.33,14.9,6.13,14.86,16.46h0Z"/><path class="cls-20" d="M401.34,204.9s.35-10.68-4.81-15.78c-6.41-6.32-14.71-6.69-20.06-.68-1.94,2.19-3.72,9.53-2.38,17.92-.91-3.54-1.41-7.17-1.51-10.82,.08-12.52,9.81-18.77,19.93-18.95,10.12-.18,17.84,4.4,21.21,13.23,2.1,5.51,2.2,13.21,2.31,20.94,.15,10.97,3.69,16.51,3.69,16.51-.87,.21-1.73,.47-2.57,.79-2.22,.8-4.62,.98-6.93,.52-7.1-1.52-9.2-8.14-9.02-16.51l.14-7.17Z"/><path class="cls-7" d="M401.34,204.9s.35-10.68-4.81-15.78c-6.41-6.32-14.71-6.69-20.06-.68-1.94,2.19-3.72,9.53-2.38,17.92-.91-3.54-1.41-7.17-1.51-10.82,.08-12.52,9.81-18.77,19.93-18.95,10.12-.18,17.84,4.4,21.21,13.23,2.1,5.51,2.2,13.21,2.31,20.94,.15,10.97,3.69,16.51,3.69,16.51-.87,.21-1.73,.47-2.57,.79-2.22,.8-4.62,.98-6.93,.52-7.1-1.52-9.2-8.14-9.02-16.51l.14-7.17Z"/><path class="cls-20" d="M401.23,213.26c-.37,1.74-1.86,4.2-4.98,6.09-4.04,2.45-7.04,2.42-10.04,2.54-2.92,.2-5.79-.82-7.92-2.83-1.65-1.49-3.74-6.16-4.02-10.13-.85,9.8-2.32,10.75-.49,14.84,1.84,4.09,1.84,6.14,1.84,6.14,0,0-1.82,10.33,9.94,11.66,11.75,1.33,18.74-4.15,24.71-13.04-6.65-1.91-9.03-7.52-9.03-15.27h0Z"/><path class="cls-8" d="M401.23,213.26c-.37,1.74-1.86,4.2-4.98,6.09-4.04,2.45-7.04,2.42-10.04,2.54-2.92,.2-5.79-.82-7.92-2.83-1.65-1.49-3.74-6.16-4.02-10.13-.85,9.8-2.32,10.75-.49,14.84,1.84,4.09,1.84,6.14,1.84,6.14,0,0-1.82,10.33,9.94,11.66,11.75,1.33,18.74-4.15,24.71-13.04-6.65-1.91-9.03-7.52-9.03-15.27h0Z"/><path class="cls-21" d="M410.22,228.56c-.47,.7-.97,1.37-1.44,2.03-8.54-2.12-8.62-12.97-7.83-16.51,.1-.25,.17-.51,.23-.78,.04,7.71,2.42,13.32,9.03,15.26h0Z"/><path class="cls-21" d="M401.51,217.66c-2.28,5.29-7.26,8.91-13,9.44,4.23,1.67,10.87-1.88,13.86-5.93l-.86-3.52Z"/><path class="cls-21" d="M375.36,226.26c4.11,7.77,15.79,8.94,25.86,4.35-5.1,5.87-21.8,9.03-25.86-4.35h0Z"/><path d="M50.98,454.78c.01,1.14-.55,2.21-1.49,2.86-3.68,1.84-7.94,2.19-11.87,.97-4.47-1.38-6.49-3.71-7.36-6.8s-.64-6.47,.61-10.55c.82-2.64,.25-6.24-.08-8.92-.56-4.57-.14-7.32,1.35-9.43,1.64-2.36,4.63-3.36,7.36-2.46l-.88,31.41,12.35,2.91h0Z"/><path class="cls-19" d="M45.47,440.84c0,4.13,.91,5.61,2.72,8.05,1.58,2.15,5.7,5.54,.43,8.13-4.11,2.02-14.33,1.8-17.05-5-2.12-5.28,1.07-10.23,.28-17.15-.52-4.64-.12-12.75,5.27-14,2.91-.68,3.89-.62,8.53,1.74,3.21,1.64,3.49,2.38,3.36,2.82l-.79-.36c-2.39-.49-4.83,.55-6.14,2.61-1.86,2.91-2.09,7.22-.09,10.05l3.47,3.11Z"/><path class="cls-12" d="M41.26,427.32c2.57-4.65,6.05-4.34,6.05-4.34l16.89,8.59s-6.8-12.33-8.89-19.7-1.3-17.04-.12-21.93l26.16,1.94s20.4,41.68,23.04,56.21c1.56,8.57,.7,14.57-3.34,17.77-6.8,5.47-14.76,3.12-27.3-4.43-12.68-7.62-32.67-19.43-32.67-19.43,0,0-3.88-7.34,.18-14.69h0Z"/><path class="cls-11" d="M73.7,461.46c-12.68-7.62-32.67-19.43-32.67-19.43,0,0-3.83-7.37,.23-14.72,2.55-4.61,5.98-4.35,6.05-4.34h0l16.89,8.59h0s-3.11-5.6-5.76-11.51h0l-.32-.72v-.05c-.11-.23-.2-.47-.3-.7h0c-.47-1.1-.91-2.19-1.31-3.24v-.06c-.14-.35-.25-.69-.38-1.02l23.16-7.27c.27,7.77-7.96,14.85-7.96,14.85,0,0,6.88,22.34,11.03,33.19,3.26,8.49,10.79,11,16.21,9.71,2.88-.57,5.25-2.6,6.26-5.36h0c-.13,.68-.31,1.34-.54,1.99h0c-.1,.31-.22,.62-.36,.91h0c-.13,.27-.26,.54-.4,.81l-.07,.11c-.14,.23-.27,.47-.43,.68l-.15,.2-.41,.53-.3,.32c-.11,.12-.21,.24-.33,.36-.23,.22-.46,.43-.71,.62-.81,.65-1.69,1.22-2.62,1.69-.66,.33-1.35,.6-2.06,.81-.47,.14-.95,.24-1.43,.32-.74,.12-1.49,.18-2.23,.17h0c-.49,0-.97,0-1.48-.08-1.14-.12-2.26-.33-3.36-.64-.86-.23-1.75-.52-2.67-.86-.61-.23-1.23-.49-1.87-.76-3.29-1.48-6.49-3.18-9.56-5.08l-.16-.04Z"/><path class="cls-23" d="M64.93,441.94c-4.98-6.38-18.76-15.12-21.79-17.11,1.08-1.15,2.58-1.82,4.17-1.85h0l8.42,4.28,8.47,4.3s8.13,17.6,14.75,20.28c-5.51-1.93-10.36-5.36-14.03-9.91h0Z"/><path class="cls-19" d="M29.3,467.97c0,1.14-.55,2.2-1.49,2.85-3.69,1.83-7.93,2.18-11.87,.97-4.47-1.39-6.49-3.72-7.36-6.8s-.64-6.47,.61-10.55c.81-2.64,.25-6.23-.08-8.92-.56-4.57-.14-7.32,1.35-9.43,1.64-2.36,4.63-3.37,7.36-2.46l-.88,31.41,12.35,2.92h0Z"/><path class="cls-11" d="M23.79,454.03c0,4.12,.91,5.6,2.72,8.04,1.58,2.15,5.7,5.54,.43,8.13-4.11,2.02-14.33,1.81-17.05-5-2.12-5.28,1.07-10.23,.28-17.15-.52-4.64-.12-12.75,5.27-14,2.91-.68,3.89-.62,8.53,1.74,3.21,1.64,3.48,2.39,3.36,2.82l-.79-.36c-2.39-.48-4.84,.56-6.14,2.63-1.86,2.91-2.1,7.22-.1,10.05l3.48,3.1Z"/><path class="cls-12" d="M18.97,440.31c1.52-3.15,5.12-4.7,8.45-3.66l12.63,6.96s-7.34-12.04-10.13-19.17c-3.31-8.44-5.83-13.45-4.31-25.66l35.4-.59,20.68-2.15c-.6,17.17-15.03,25.25-15.03,25.25,0,0,11.41,28.17,13.7,37.71,2.16,8.97,.63,15.72-3.41,18.95-6.8,5.46-15.72,4.6-28.26-2.91-12.54-7.52-30.46-20.2-30.46-20.2-2.03-4.69-1.75-10.06,.74-14.52h0Z"/><path class="cls-11" d="M40.89,453.98c-7.77-10.61-14.64-15.01-18.2-17.17,1.53-.57,3.21-.63,4.78-.18h0l12.63,6.96s8.14,17.6,14.76,20.28c-5.56-1.79-10.44-5.24-13.97-9.9h0Z"/><path class="cls-10" d="M74.01,329.83c6.9,.58,8.6,3.81,17.36,16.13,8.1,11.39,12.39,17.78,12.39,17.78,0,0,20.4-7.89,22.28-9.2s2.81-5.43,5.05-7.86c2.24-2.43,4.31-4.12,5.99-5.83,1.68-1.71,3.75,.97,1.69,3.93-2.06,2.96-3,4.68-2.44,4.86,.56,.17,7.49-3.37,9.18-7.11s2.57-2.62,3.63-2.62c0,0,1.07-2.36,2.91-1.42,.53,.26,.71,.62,.36,3.1,1.18,.31,1.97,1.41,1.87,2.62-.1,1.67-.48,3.31-1.13,4.86,0,0,.97,1.69-1.31,5.25s-7.51,6.7-13.87,8.95-8.18,3.89-15.85,8.35c-5.67,3.46-11.52,6.61-17.53,9.43-6.49,2.8-8.91,.39-12.77-3.73-4.86-5.11-15.84-18.41-15.84-18.41l-1.98-29.09Z"/><path class="cls-11" d="M74.16,328.77c8.33,1.19,9.71,4.67,13.67,10.39,4.35,6.28,15.91,24.1,15.91,24.1l7.69-2.86s-2.78,2.54-.48,8.32,5.83,6.42,5.83,6.42c0,0-6.5,3.73-11.1,5.83-4.6,2.1-7.69,2.7-11.66-.87-3.96-3.57-18.45-20.84-18.45-20.84l-1.41-30.49Z"/><path class="cls-19" d="M83.69,351.32c1.14-15.92-5.71-20.15-9.53-22.54l-18.14-3.31c-3.89,.34-11.66,4.08-21.16,8.61-2.71,1.34-3.8,2.77-5.62,12.46-1.45,7.87-2.35,14.96-3.15,29.33-.51,9.25-.97,18.77-.97,29.79,10.17,5.45,43.95,3.12,57.99-9.88-.78-2.5-.85-12.41-.71-17.17,.45-13.18,.93-22.27,1.29-27.28h0Z"/><path class="cls-19" d="M50.66,321.67c-.83-4.18-5.12-8.43-7.1-12.04-1.94-3.47-3.06-6.18-2.91-9.5,.07-1.94,1.23-4.66,2.67-5.25-.38-7.18,7.21-11.4,16.72-12.63,9.51-1.22,14.57,3.21,16.98,5.89,1.66,1.84,2.63,4.2,2.73,6.67,0,.97,0,2.58-.78,3.21-.17,.14-.56-.05-.72,.12s-.14,.76-.18,.97c-.08,.67-.31,1.31-.67,1.88-.59,.92-1.39,1.69-2.34,2.24-3.06,1.55-6.47,2.13-9.78,2.91l-3.89,.92c-.23,.06-1.43,.17-1.56,.37l-9.16,14.24Z"/><path class="cls-10" d="M45.6,316.43c1.52,1.04,3.54,.92,4.93-.28l-.77,12.63c2.48,5.65,10.76,6.8,17.17,13.06,0,0,2.51-4.12,.45-12.28l.38-4.23c1.67-.02,3.33-.14,4.98-.36,3.42-.66,6.1-3.31,6.8-6.72,.88-3.75,.65-9.83-.28-14.27-.25-1.13-.34-2.29-.27-3.45,.17-2.52-.25-5.05-1.22-7.38-3.7-2.82-12.09-3.57-19.77,1.38,1.03,4.62-.68,8.35-4.01,10.22,.19,1.24,.44,4.41-1.62,4.41-1.49,0-1.64-1.86-3.21-3.46-1.56-1.59-5.14-1.94-6.45,.51-1.76,3.65-.52,8.03,2.88,10.22h0Z"/><polygon class="cls-15" points="69.12 301.96 76.87 309.22 71.4 311.75 69.12 301.96 69.12 301.96 69.12 301.96"/><path class="cls-19" d="M64.67,299.87l-3.21,1.54c-.43-.92-.06-2.01,.85-2.47,.88-.41,1.93-.03,2.34,.85,.01,.02,.02,.05,.03,.07h0Z"/><path class="cls-19" d="M77.8,300.61l-3.2-1.7c.41-.87,1.44-1.24,2.31-.83,.03,.01,.05,.02,.08,.04,.87,.5,1.22,1.58,.81,2.5h0Z"/><path class="cls-15" d="M67.76,325.32c-5.24-.48-9.37-.97-12.2-4.68-1.32-1.91-2.43-3.95-3.31-6.1,.4,2.68,1.23,5.28,2.45,7.69,1.38,2.37,4.7,4.49,12.9,4.96l.17-1.87Z"/><path class="cls-19" d="M65.86,304.82c.03,.81-.61,1.5-1.42,1.53-.81,.03-1.5-.61-1.53-1.42-.03-.79,.58-1.47,1.37-1.53,.83-.04,1.53,.59,1.58,1.42h0Z"/><path class="cls-24" d="M64.3,313.48l5.83,1.56c-.48,1.63-2.16,2.6-3.82,2.19-1.56-.41-2.48-2.01-2.07-3.57,.02-.06,.03-.12,.06-.18h0Z"/><path class="cls-15" d="M68.02,317.19c-.36-1.78-2-3.01-3.82-2.86-.05,1.36,.85,2.56,2.16,2.91,.55,.14,1.12,.12,1.66-.06h0Z"/><path class="cls-19" d="M77.49,304.26c-.05,.81-.74,1.42-1.55,1.38-.81-.05-1.42-.74-1.38-1.55,.05-.78,.7-1.39,1.48-1.38,.83,.04,1.47,.73,1.45,1.55h0Z"/><path class="cls-11" d="M66.94,341.84c-1.64-1.94-1.3-3.55-4.96-5.24-3.66-1.68-10.64-6.61-12.05-10.4l.15-2.32s-.51-.24-1.31,.76-3.89,4.3-6.22,5.49c1.2,4.51,6.53,12.18,16.83,15.63,.13-5.07,2.86-7.25,4.3-6.39,1.45,.85,2.37,2.06,3.26,2.48h0Z"/><path class="cls-11" d="M66.94,341.84c.8-2.57,1.07-5.28,.79-7.96-.27-1.42-.38-2.87-.34-4.32l.38-4.23c.9,.26,1.73,.74,2.4,1.4,1.01,.84,2.16,1.49,3.39,1.94,2.44,4.2,2.61,9.34,.46,13.7-.56-4.99-4.68-5.37-5.26-3.89-.39,1.22-1,2.36-1.81,3.36h0Z"/><path class="cls-10" d="M86.54,389.8c2.08,.27,4.27-.69,6.31-.88,1.79-.08,3.59-.01,5.37,.21,1.86,.16,3.72,.37,5.58,.51,.48,0,.58,.5,.53,.91-.14,.79-.62,1.47-1.31,1.86-.68,.38-1.44,.63-2.21,.72-.69,.11-1.39,.18-2.1,.2-.73,0-2.47,.05-2.28,1.16l-9.9-4.7Z"/><path class="cls-15" d="M86.54,389.8c1.45,.19,2.93,.08,4.34-.3,.7-.14,1.41-.25,2.12-.31,.71-.04,1.42-.04,2.14,0,1.43,.07,2.91,.21,4.32,.29,1.41,.08,2.91,.16,4.35,.17-1.43-.26-2.91-.45-4.31-.63s-2.91-.34-4.34-.43c-.73-.05-1.47-.05-2.2,0-.73,.09-1.46,.23-2.17,.43-.71,.19-1.4,.39-2.11,.52-.7,.18-1.42,.27-2.14,.26h0Z"/><path class="cls-10" d="M108.74,399.92c-2.26-.69-7.11-.43-10.31-3.25-.58-.51-1.86-1.37-2-2.18l-9.9-4.69c-4,0-5.11,0-12.63-2.27-6.44-2-21.85-9.25-21.85-9.25l-8.39-24.53c-1.89-8.47-6.8-17.66-11.83-17.77-11.5,4.16-6.9,13.97-2.44,27.86,3.33,10.39,4.15,16.29,6.4,22.34s2.54,7.86,9.51,9c13.05,2.17,24.04,5.55,35.05,7.14,1.44,.2,3.16,.61,5.94,3.07,1.1,.97,3.08,2.79,3.89,3.38,1.02,.68,2.11,1.26,3.25,1.72,2.41,1.29,5.05,2.07,7.77,2.29,.51,.07,1.41,.19,1.66-.24,.23-.37,.19-.85-.09-1.19-.51-.59-1.26-.69-2.39-1.26,1.77,.51,3.64,.6,5.45,.25,.36-.11,.69-.29,.97-.53,.27-.33,.34-.78,.2-1.19,.61-.06,1.22-.15,1.83-.28,.66-.21,2-.74,1.28-1.61-1.21-1.5-3.89-.92-6.52-1.52s-5.25-3.25-5.25-3.25c1.62,.43,3.28,.76,4.94,.97,2.1,.23,6.31,.11,7.07-.69,.76-.8,.63-1.65-1.63-2.33h0Z"/><path class="cls-15" d="M107.02,408.63c-2.19-.08-4.36-.38-6.49-.89-1.02-.33-2-.79-2.91-1.37l-2.91-1.63c.86,.7,1.75,1.34,2.68,1.94,.92,.63,1.93,1.12,3,1.46,2.17,.52,4.41,.68,6.63,.5h0Z"/><path class="cls-15" d="M100.35,410.1c-1.09-.38-2.14-.84-3.16-1.38-.97-.51-1.94-1.14-3.03-1.65,.85,.8,1.81,1.48,2.84,2.03,1.03,.57,2.18,.91,3.35,1h0Z"/><path class="cls-11" d="M34.09,334.38c-5.83,2.35-10.83,5.76-10.37,13.12,.49,8.04,1.51,11.06,4.3,21.84,3.07,11.82,5.64,18.17,7.13,21.29,1.49,3.12,4.26,4.03,9.51,5,5.24,.97,18.95,3.42,18.95,3.42,0,0-.97-2.91,.67-8.63,1.64-5.72,4.47-5.44,4.47-5.44l-16.1-7s-5.83-19.85-8.12-27.38-4.32-13.57-10.43-16.21h0Z"/><polygon class="cls-11" points="290.39 465.51 320.36 448.2 320.36 425.13 290.39 442.43 290.39 465.51 290.39 465.51 290.39 465.51"/><polygon points="290.39 442.43 200.45 390.51 200.45 413.59 290.39 465.51 290.39 442.43 290.39 442.43 290.39 442.43"/><polygon class="cls-12" points="320.36 425.13 230.42 373.2 200.45 390.51 290.39 442.43 320.36 425.13 320.36 425.13 320.36 425.13"/><path class="cls-19" d="M230.42,373.91l88.72,51.22-28.75,16.6-88.72-51.22,28.75-16.6m0-.71l-29.97,17.31,89.94,51.93,29.97-17.31-89.94-51.93h0Z"/><polygon class="cls-11" points="227.37 501.65 257.36 484.34 257.36 461.26 227.37 478.57 227.37 501.65 227.37 501.65 227.37 501.65"/><polygon class="cls-19" points="227.37 478.57 137.43 426.64 137.43 449.72 227.37 501.65 227.37 478.57 227.37 478.57 227.37 478.57"/><polygon class="cls-12" points="257.36 461.26 167.42 409.33 137.43 426.64 227.37 478.57 257.36 461.26 257.36 461.26 257.36 461.26"/><path class="cls-19" d="M167.42,410.04l88.71,51.22-28.75,16.6-88.71-51.22,28.75-16.6m0-.71l-29.98,17.31,89.94,51.93,29.98-17.31-89.94-51.93h0Z"/><polygon class="cls-19" points="198.92 455.47 168.94 438.16 168.94 415.08 198.92 432.39 198.92 455.47 198.92 455.47 198.92 455.47"/><polygon points="198.92 432.39 288.85 380.46 288.85 403.54 198.92 455.47 198.92 432.39 198.92 432.39 198.92 432.39"/><polygon class="cls-12" points="168.94 415.08 258.88 363.16 288.85 380.46 198.92 432.39 168.94 415.08 168.94 415.08 168.94 415.08"/><path class="cls-19" d="M258.88,363.87l28.71,16.6-88.71,51.22-28.71-16.63,88.71-51.22m0-.71l-89.94,51.93,29.98,17.31,89.93-51.93-29.97-17.31h0Z"/><polygon class="cls-19" points="230.42 473.54 200.45 456.23 200.45 433.15 230.42 450.46 230.42 473.54 230.42 473.54 230.42 473.54"/><polygon class="cls-11" points="230.42 450.46 320.36 398.53 320.36 421.61 230.42 473.54 230.42 450.46 230.42 450.46 230.42 450.46"/><polygon class="cls-12" points="200.45 433.15 290.39 381.22 320.36 398.53 230.42 450.46 200.45 433.15 200.45 433.15 200.45 433.15"/><path class="cls-19" d="M290.39,381.93l28.75,16.61-88.72,51.22-28.75-16.6,88.72-51.22m0-.71l-89.94,51.93,29.97,17.31,89.94-51.93-29.97-17.31h0Z"/><polygon class="cls-11" points="258.88 425.88 288.85 408.57 288.85 385.5 258.88 402.81 258.88 425.88 258.88 425.88 258.88 425.88"/><polygon points="258.88 402.81 168.94 350.88 168.94 373.96 258.88 425.88 258.88 402.81 258.88 402.81 258.88 402.81"/><polygon class="cls-12" points="288.85 385.5 198.92 333.57 168.94 350.88 258.88 402.81 288.85 385.5 288.85 385.5 288.85 385.5"/><path class="cls-19" d="M198.92,334.28l88.67,51.22-28.75,16.6-88.71-51.22,28.75-16.6m0-.71l-29.98,17.31,89.94,51.93,29.97-17.31-89.93-51.93h0Z"/><polygon class="cls-16" points="248.66 431.34 248.66 439.03 235.28 464.38 137.43 443.76 137.43 436.07 235.28 456.68 248.66 431.34 248.66 431.34 248.66 431.34"/><polygon class="cls-20" points="235.28 456.68 248.66 431.34 248.66 408.26 235.28 433.61 235.28 456.68 235.28 456.68 235.28 456.68"/><polygon class="cls-6" points="235.28 456.68 248.66 431.34 248.66 408.26 235.28 433.61 235.28 456.68 235.28 456.68 235.28 456.68"/><polygon class="cls-20" points="235.28 433.6 114.6 408.18 114.6 431.25 235.28 456.68 235.28 433.6 235.28 433.6 235.28 433.6"/><polygon class="cls-16" points="235.28 433.6 114.6 408.18 114.6 431.25 235.28 456.68 235.28 433.6 235.28 433.6 235.28 433.6"/><polygon class="cls-20" points="248.66 408.26 127.98 382.84 114.6 408.18 235.28 433.6 248.66 408.26 248.66 408.26 248.66 408.26"/><polygon class="cls-19" points="167.42 379.71 137.43 362.4 137.43 339.32 167.42 356.63 167.42 379.71 167.42 379.71 167.42 379.71"/><polygon class="cls-11" points="167.42 356.63 257.36 304.7 257.36 327.78 167.42 379.71 167.42 356.63 167.42 356.63 167.42 356.63"/><polygon class="cls-12" points="137.43 339.32 227.37 287.38 257.36 304.7 167.42 356.63 137.43 339.32 137.43 339.32 137.43 339.32"/><path class="cls-19" d="M227.37,288.1l28.75,16.6-88.71,51.22-28.75-16.63,88.71-51.19m0-.72l-89.94,51.91,29.98,17.31,89.94-51.93-29.98-17.29h0Z"/><polygon class="cls-19" points="230.42 415.84 200.45 398.53 200.45 375.45 230.42 392.76 230.42 415.84 230.42 415.84 230.42 415.84"/><polygon class="cls-11" points="230.42 392.76 320.36 340.84 320.36 363.91 230.42 415.84 230.42 392.76 230.42 392.76 230.42 392.76"/><polygon class="cls-12" points="200.45 375.45 290.39 323.53 320.36 340.84 230.42 392.76 200.45 375.45 200.45 375.45 200.45 375.45"/><path class="cls-19" d="M290.39,324.24l28.75,16.6-88.72,51.22-28.75-16.6,88.72-51.22m0-.71l-89.94,51.93,29.97,17.31,89.94-51.93-29.97-17.31h0Z"/><polygon class="cls-11" points="258.88 368.19 288.85 350.88 288.85 327.8 258.88 345.11 258.88 368.19 258.88 368.19 258.88 368.19"/><polygon points="258.88 345.11 168.94 293.18 168.94 316.26 258.88 368.19 258.88 345.11 258.88 345.11 258.88 345.11"/><polygon class="cls-12" points="288.85 327.8 198.92 275.87 168.94 293.18 258.88 345.11 288.85 327.8 288.85 327.8 288.85 327.8"/><path class="cls-19" d="M198.92,276.58l88.67,51.22-28.75,16.6-88.71-51.22,28.75-16.6m0-.71l-29.98,17.31,89.98,51.94,29.97-17.31-89.93-51.93h-.04Z"/><polygon class="cls-19" points="167.42 322.01 137.43 304.69 137.43 281.62 167.42 298.92 167.42 322.01 167.42 322.01 167.42 322.01"/><polygon points="167.42 298.92 257.36 247 257.36 270.09 167.42 322 167.42 298.92 167.42 298.92 167.42 298.92"/><polygon class="cls-12" points="137.43 281.62 227.37 229.69 257.36 247 167.42 298.92 137.43 281.62 137.43 281.62 137.43 281.62"/><path class="cls-19" d="M227.37,230.4l28.75,16.62-88.71,51.22-28.75-16.6,88.71-51.24m0-.71l-89.94,51.93,29.98,17.31,89.94-51.91-29.98-17.33h0Z"/><polygon class="cls-19" points="198.92 340.08 168.94 322.77 168.94 299.69 198.92 317 198.92 340.08 198.92 340.08 198.92 340.08"/><polygon class="cls-11" points="198.92 317 288.85 265.07 288.85 288.15 198.92 340.08 198.92 317 198.92 317 198.92 317"/><polygon class="cls-12" points="168.94 299.69 258.88 247.75 288.85 265.07 198.92 317 168.94 299.69 168.94 299.69 168.94 299.69"/><path class="cls-19" d="M258.88,248.46l28.75,16.61-88.71,51.22-28.75-16.6,88.71-51.23m0-.71l-89.94,51.94,29.98,17.31,89.93-51.93-29.97-17.32h0Z"/><polygon class="cls-16" points="311.41 335.66 320.36 340.84 231.96 365.66 213.91 344.24 213.91 336.42 231.96 357.83 311.41 335.66 311.41 335.66 311.41 335.66"/><polygon class="cls-20" points="231.96 357.83 213.91 335.53 213.91 312.45 231.96 334.75 231.96 357.83 231.96 357.83 231.96 357.83"/><polygon class="cls-6" points="231.96 357.83 213.91 335.53 213.91 312.45 231.96 334.75 231.96 357.83 231.96 357.83 231.96 357.83"/><polygon class="cls-20" points="231.96 334.75 339.86 304.64 339.86 327.72 231.96 357.83 231.96 334.75 231.96 334.75 231.96 334.75"/><polygon class="cls-16" points="231.96 334.75 339.86 304.64 339.86 327.72 231.96 357.83 231.96 334.75 231.96 334.75 231.96 334.75"/><polygon class="cls-20" points="213.91 312.45 321.82 282.34 339.86 304.64 231.96 334.75 213.91 312.45 213.91 312.45 213.91 312.45"/><polygon class="cls-11" points="258.88 311.55 288.85 294.24 288.85 271.16 258.88 288.47 258.88 311.55 258.88 311.55 258.88 311.55"/><polygon class="cls-19" points="258.88 288.47 168.94 236.55 168.94 259.62 258.88 311.55 258.88 288.47 258.88 288.47 258.88 288.47"/><polygon class="cls-12" points="288.85 271.16 198.92 219.24 168.94 236.55 258.88 288.47 288.85 271.16 288.85 271.16 288.85 271.16"/><path class="cls-19" d="M198.92,219.95l88.67,51.22-28.71,16.65-88.71-51.22,28.75-16.6m0-.71l-29.98,17.31,89.94,51.93,29.97-17.31-89.93-51.97v.05h0Z"/><polygon class="cls-11" points="227.37 329.75 257.36 312.44 257.36 289.37 227.37 306.67 227.37 329.75 227.37 329.75 227.37 329.75"/><polygon class="cls-19" points="227.37 306.67 137.43 254.75 137.43 277.83 227.37 329.75 227.37 306.67 227.37 306.67 227.37 306.67"/><polygon class="cls-12" points="257.36 289.37 167.42 237.44 137.43 254.75 227.37 306.67 257.36 289.37 257.36 289.37 257.36 289.37"/><path class="cls-19" d="M167.42,238.15l88.71,51.22-28.75,16.6-88.71-51.18,28.75-16.6m0-.71l-29.98,17.31,89.94,51.89,29.98-17.31-89.94-51.93v.04h0Z"/><polygon class="cls-19" points="167.42 263.62 137.43 246.31 137.43 223.23 167.42 240.54 167.42 263.62 167.42 263.62 167.42 263.62"/><polygon points="167.42 240.54 257.36 188.61 257.36 211.69 167.42 263.62 167.42 240.54 167.42 240.54 167.42 240.54"/><polygon class="cls-12" points="137.43 223.23 227.37 171.3 257.36 188.61 167.42 240.54 137.43 223.23 137.43 223.23 137.43 223.23"/><path class="cls-19" d="M227.37,172.01l28.75,16.6-88.71,51.22-28.75-16.6,88.71-51.22m0-.71l-89.94,51.93,29.98,17.31,89.94-51.93-29.98-17.31h0Z"/><polygon class="cls-19" points="231.19 299.97 201.21 282.66 201.21 259.59 231.19 276.89 231.19 299.97 231.19 299.97 231.19 299.97"/><polygon class="cls-11" points="231.19 276.89 321.13 224.97 321.13 248.05 231.19 299.97 231.19 276.89 231.19 276.89 231.19 276.89"/><polygon class="cls-12" points="201.21 259.59 291.15 207.66 321.13 224.97 231.19 276.89 201.21 259.59 201.21 259.59 201.21 259.59"/><path class="cls-19" d="M291.15,208.37l28.75,16.6-88.71,51.19-28.75-16.6,88.71-51.22m0-.71l-89.94,51.93,29.98,17.31,89.94-51.93-29.98-17.31h0Z"/><polygon class="cls-11" points="258.88 257.85 288.85 240.54 288.85 217.46 258.88 234.77 258.88 257.85 258.88 257.85 258.88 257.85"/><polygon class="cls-19" points="258.88 234.77 168.94 182.84 168.94 205.92 258.88 257.85 258.88 234.77 258.88 234.77 258.88 234.77"/><polygon class="cls-12" points="288.85 217.46 198.92 165.53 168.94 182.84 258.88 234.77 288.85 217.46 288.85 217.46 288.85 217.46"/><path class="cls-19" d="M198.92,166.24l88.67,51.22-28.75,16.6-88.71-51.22,28.75-16.6m0-.71l-29.98,17.31,89.94,51.93,29.97-17.31-89.93-51.93h0Z"/></g></g></svg>